<?xml version="1.0" encoding="UTF-8" standalone="no"?><svg xmlns="http://www.w3.org/2000/svg" xmlns:xlink="http://www.w3.org/1999/xlink" contentScriptType="application/ecmascript" contentStyleType="text/css" height="321px" preserveAspectRatio="none" style="width:1511px;height:321px;" version="1.1" viewBox="0 0 1511 321" width="1511px" zoomAndPan="magnify"><defs/><g><!--entity _authenticationHandler--><rect fill="#F8F8F8" height="34.4844" rx="2" ry="2" style="stroke: #000000; stroke-width: 0.5;" width="145" x="200.5" y="75"/><text fill="#000000" font-family="Tahoma, sans-serif" font-size="12" lengthAdjust="spacingAndGlyphs" textLength="125" x="210.5" y="97.0059">authenticationHandler</text><!--entity _authKeeper--><rect fill="#F8F8F8" height="34.4844" rx="2" ry="2" style="stroke: #000000; stroke-width: 0.5;" width="84" x="296" y="142"/><text fill="#000000" font-family="Tahoma, sans-serif" font-size="12" lengthAdjust="spacingAndGlyphs" textLength="64" x="306" y="164.0059">authKeeper</text><!--entity _CoeHandler--><rect fill="#F8F8F8" height="34.4844" rx="2" ry="2" style="stroke: #000000; stroke-width: 0.5;" width="86" x="1040" y="8"/><text fill="#000000" font-family="Tahoma, sans-serif" font-size="12" lengthAdjust="spacingAndGlyphs" textLength="66" x="1050" y="30.0059">CoeHandler</text><!--entity _CoSimAlgorithms--><rect fill="#F8F8F8" height="34.4844" rx="2" ry="2" style="stroke: #000000; stroke-width: 0.5;" width="119" x="1365.5" y="209"/><text fill="#000000" font-family="Tahoma, sans-serif" font-size="12" lengthAdjust="spacingAndGlyphs" textLength="99" x="1375.5" y="231.0059">CoSimAlgorithms</text><!--entity _CoSimulationConfig--><rect fill="#F8F8F8" height="34.4844" rx="2" ry="2" style="stroke: #000000; stroke-width: 0.5;" width="134" x="1181" y="142"/><text fill="#000000" font-family="Tahoma, sans-serif" font-size="12" lengthAdjust="spacingAndGlyphs" textLength="114" x="1191" y="164.0059">CoSimulationConfig</text><!--entity _FileUpdater--><rect fill="#F8F8F8" height="34.4844" rx="2" ry="2" style="stroke: #000000; stroke-width: 0.5;" width="83" x="430.5" y="75"/><text fill="#000000" font-family="Tahoma, sans-serif" font-size="12" lengthAdjust="spacingAndGlyphs" textLength="63" x="440.5" y="97.0059">FileUpdater</text><!--entity _FMUdescriptionHandler--><rect fill="#F8F8F8" height="34.4844" rx="2" ry="2" style="stroke: #000000; stroke-width: 0.5;" width="150" x="993" y="75"/><text fill="#000000" font-family="Tahoma, sans-serif" font-size="12" lengthAdjust="spacingAndGlyphs" textLength="130" x="1003" y="97.0059">FMUdescriptionHandler</text><!--entity _IHandler--><rect fill="#F8F8F8" height="34.4844" rx="2" ry="2" style="stroke: #000000; stroke-width: 0.5;" width="68" x="759" y="142"/><text fill="#000000" font-family="Tahoma, sans-serif" font-size="12" lengthAdjust="spacingAndGlyphs" textLength="48" x="769" y="164.0059">IHandler</text><!--entity _MM--><rect fill="#F8F8F8" height="34.4844" rx="2" ry="2" style="stroke: #000000; stroke-width: 0.5;" width="40" x="1142" y="8"/><text fill="#000000" font-family="Tahoma, sans-serif" font-size="12" font-weight="bold" lengthAdjust="spacingAndGlyphs" textLength="20" x="1152" y="30.0059">MM</text><!--entity _MMCreator--><rect fill="#F8F8F8" height="34.4844" rx="2" ry="2" style="stroke: #000000; stroke-width: 0.5;" width="80" x="1159" y="75"/><text fill="#000000" font-family="Tahoma, sans-serif" font-size="12" lengthAdjust="spacingAndGlyphs" textLength="60" x="1169" y="97.0059">MMCreator</text><!--entity _MMEditor--><rect fill="#F8F8F8" height="34.4844" rx="2" ry="2" style="stroke: #000000; stroke-width: 0.5;" width="79" x="1198.5" y="8"/><text fill="#000000" font-family="Tahoma, sans-serif" font-size="12" font-weight="bold" lengthAdjust="spacingAndGlyphs" textLength="59" x="1208.5" y="30.0059">MMEditor</text><!--entity _ProjectDataHandler--><rect fill="#F8F8F8" height="34.4844" rx="2" ry="2" style="stroke: #000000; stroke-width: 0.5;" width="131" x="529.5" y="75"/><text fill="#000000" font-family="Tahoma, sans-serif" font-size="12" lengthAdjust="spacingAndGlyphs" textLength="111" x="539.5" y="97.0059">ProjectDataHandler</text><!--entity _ProjectsDataHandler--><rect fill="#F8F8F8" height="34.4844" rx="2" ry="2" style="stroke: #000000; stroke-width: 0.5;" width="138" x="677" y="75"/><text fill="#000000" font-family="Tahoma, sans-serif" font-size="12" lengthAdjust="spacingAndGlyphs" textLength="118" x="687" y="97.0059">ProjectsDataHandler</text><!--entity _ProjectUploadHandler--><rect fill="#F8F8F8" height="34.4844" rx="2" ry="2" style="stroke: #000000; stroke-width: 0.5;" width="144" x="6" y="209"/><text fill="#000000" font-family="Tahoma, sans-serif" font-size="12" lengthAdjust="spacingAndGlyphs" textLength="124" x="16" y="231.0059">ProjectUploadHandler</text><ellipse cx="532.9914" cy="25.242" fill="#F8F8F8" rx="31.9914" ry="13.242" style="stroke: #383838; stroke-width: 0.5;"/><text fill="#000000" font-family="Tahoma, sans-serif" font-size="12" font-weight="bold" lengthAdjust="spacingAndGlyphs" textLength="41" x="512.4914" y="28.9842">server</text><!--entity _SystemSettings--><rect fill="#F8F8F8" height="34.4844" rx="2" ry="2" style="stroke: #000000; stroke-width: 0.5;" width="110" x="540" y="276"/><text fill="#000000" font-family="Tahoma, sans-serif" font-size="12" lengthAdjust="spacingAndGlyphs" textLength="90" x="550" y="298.0059">SystemSettings</text><!--entity _UserCoeHandler--><rect fill="#F8F8F8" height="34.4844" rx="2" ry="2" style="stroke: #000000; stroke-width: 0.5;" width="112" x="831" y="75"/><text fill="#000000" font-family="Tahoma, sans-serif" font-size="12" lengthAdjust="spacingAndGlyphs" textLength="92" x="841" y="97.0059">UserCoeHandler</text><!--entity _UserElement--><rect fill="#F8F8F8" height="34.4844" rx="2" ry="2" style="stroke: #000000; stroke-width: 0.5;" width="92" x="688" y="209"/><text fill="#000000" font-family="Tahoma, sans-serif" font-size="12" lengthAdjust="spacingAndGlyphs" textLength="72" x="698" y="231.0059">UserElement</text><!--entity _VariableStepConstraint--><rect fill="#F8F8F8" height="34.4844" rx="2" ry="2" style="stroke: #000000; stroke-width: 0.5;" width="150" x="1350" y="276"/><text fill="#000000" font-family="Tahoma, sans-serif" font-size="12" lengthAdjust="spacingAndGlyphs" textLength="130" x="1360" y="298.0059">VariableStepConstraint</text><!--link _authenticationHandler to _authKeeper--><path d="M289.067,109.067 C297.752,117.752 308.56,128.56 317.809,137.809 " fill="none" id="_authenticationHandler-_authKeeper" style="stroke: #000000; stroke-width: 0.55;"/><polygon fill="#000000" points="321.666,141.666,318.1305,132.4736,318.1305,138.1305,312.4736,138.1305,321.666,141.666" style="stroke: #000000; stroke-width: 0.55;"/><!--link _authenticationHandler to _SystemSettings--><path d="M271.506,109.305 C270.739,127.611 272.356,157.205 288,176 C349.848,250.3045 464.577,277.0703 534.918,286.6723 " fill="none" id="_authenticationHandler-_SystemSettings" style="stroke: #000000; stroke-width: 0.55;"/><polygon fill="#000000" points="539.905,287.3344,531.5102,282.1838,534.9486,286.6758,530.4566,290.1142,539.905,287.3344" style="stroke: #000000; stroke-width: 0.55;"/><!--link _CoeHandler to _IHandler--><path d="M1043.67,42.141 C1025.08,50.633 1003.055,61.987 985,75 C967.663,87.495 969.296,97.957 951,109 C913.891,131.399 865.621,144.418 832.248,151.332 " fill="none" id="_CoeHandler-_IHandler" style="stroke: #000000; stroke-width: 0.55;"/><polygon fill="#000000" points="827.024,152.39,836.6384,154.5263,831.9247,151.3987,835.0523,146.6851,827.024,152.39" style="stroke: #000000; stroke-width: 0.55;"/><!--link _CoeHandler to _MMCreator--><path d="M1111.67,42.067 C1127.99,51.208 1148.5,62.702 1165.54,72.253 " fill="none" id="_CoeHandler-_MMCreator" style="stroke: #000000; stroke-width: 0.55;"/><polygon fill="#000000" points="1170.25,74.892,1164.3514,67.0049,1165.8873,72.4492,1160.443,73.9852,1170.25,74.892" style="stroke: #000000; stroke-width: 0.55;"/><!--link _CoeHandler to _SystemSettings--><path d="M1126.08,39.693 C1128.76,40.489 1131.41,41.263 1134,42 C1190.92,58.197 1212.41,44.297 1263,75 C1307.64,102.088 1356.89,136.282 1323,176 C1237.02,276.7666 814.093,290.4182 655.349,291.9525 " fill="none" id="_CoeHandler-_SystemSettings" style="stroke: #000000; stroke-width: 0.55;"/><polygon fill="#000000" points="650.271,291.9983,659.3072,295.9158,655.2708,291.9526,659.2341,287.9162,650.271,291.9983" style="stroke: #000000; stroke-width: 0.55;"/><!--link _CoeHandler to _UserCoeHandler--><path d="M1039.99,40.265 C1010.68,49.984 971.669,62.921 940.377,73.298 " fill="none" id="_CoeHandler-_UserCoeHandler" style="stroke: #000000; stroke-width: 0.55;"/><polygon fill="#000000" points="935.424,74.941,945.2257,75.9039,940.1697,73.3667,942.7068,68.3107,935.424,74.941" style="stroke: #000000; stroke-width: 0.55;"/><!--link _CoeHandler to _UserElement--><path d="M1126.11,39.591 C1128.78,40.411 1131.42,41.22 1134,42 C1184.07,57.165 1215.62,33.139 1247,75 C1256.06,87.09 1256.22,97.025 1247,109 C1218.57,145.935 909.186,197.74 785.074,217.2026 " fill="none" id="_CoeHandler-_UserElement" style="stroke: #000000; stroke-width: 0.55;"/><polygon fill="#000000" points="780.021,217.9932,789.5311,220.554,784.9609,217.2204,788.2946,212.6502,780.021,217.9932" style="stroke: #000000; stroke-width: 0.55;"/><!--link _CoSimAlgorithms to _VariableStepConstraint--><path d="M1425,243.0674 C1425,251.364 1425,261.5995 1425,270.561 " fill="none" id="_CoSimAlgorithms-_VariableStepConstraint" style="stroke: #000000; stroke-width: 0.55;"/><polygon fill="#000000" points="1425,275.6659,1429,266.6659,1425,270.6659,1421,266.6659,1425,275.6659" style="stroke: #000000; stroke-width: 0.55;"/><!--link _CoSimulationConfig to _CoSimAlgorithms--><path d="M1291.75,176.067 C1317.39,185.482 1349.82,197.392 1376.27,207.105 " fill="none" id="_CoSimulationConfig-_CoSimAlgorithms" style="stroke: #000000; stroke-width: 0.55;"/><polygon fill="#000000" points="1381.14,208.892,1374.0772,202.0278,1376.4482,207.1638,1371.3121,209.5347,1381.14,208.892" style="stroke: #000000; stroke-width: 0.55;"/><!--link _FileUpdater to _IHandler--><path d="M513.588,107.01 C516.086,107.718 518.57,108.388 521,109 C602.808,129.621 700.551,145.031 753.749,152.66 " fill="none" id="_FileUpdater-_IHandler" style="stroke: #000000; stroke-width: 0.55;"/><polygon fill="#000000" points="758.756,153.374,750.4107,148.1438,753.8061,152.6683,749.2815,156.0637,758.756,153.374" style="stroke: #000000; stroke-width: 0.55;"/><!--link _FileUpdater to _SystemSettings--><path d="M482.066,109.285 C504.285,145.233 557.5,231.3299 582.112,271.149 " fill="none" id="_FileUpdater-_SystemSettings" style="stroke: #000000; stroke-width: 0.55;"/><polygon fill="#000000" points="584.968,275.7691,583.6397,266.0102,582.3397,271.5157,576.8342,270.2156,584.968,275.7691" style="stroke: #000000; stroke-width: 0.55;"/><!--link _FileUpdater to _UserElement--><path d="M503.864,109.054 C552.712,133.664 645.847,180.587 697.396,206.559 " fill="none" id="_FileUpdater-_UserElement" style="stroke: #000000; stroke-width: 0.55;"/><polygon fill="#000000" points="701.948,208.852,695.7104,201.2302,697.4827,206.6022,692.1107,208.3746,701.948,208.852" style="stroke: #000000; stroke-width: 0.55;"/><!--link _FMUdescriptionHandler to _IHandler--><path d="M1000.022,109.067 C947.185,121.556 875.762,138.438 832.113,148.755 " fill="none" id="_FMUdescriptionHandler-_IHandler" style="stroke: #000000; stroke-width: 0.55;"/><polygon fill="#000000" points="827.193,149.918,836.8717,151.7407,832.0589,148.7679,835.0317,143.9552,827.193,149.918" style="stroke: #000000; stroke-width: 0.55;"/><!--link _FMUdescriptionHandler to _SystemSettings--><path d="M1038.22,109.116 C1007.22,125.876 957.244,152.849 914,176 C858.084,205.935 847.163,220.1429 788,243 C744.794,259.6923 693.947,272.3341 655.292,280.5929 " fill="none" id="_FMUdescriptionHandler-_SystemSettings" style="stroke: #000000; stroke-width: 0.55;"/><polygon fill="#000000" points="650.161,281.6787,659.7944,283.7277,655.0526,280.643,658.1372,275.9012,650.161,281.6787" style="stroke: #000000; stroke-width: 0.55;"/><!--link _FMUdescriptionHandler to _UserElement--><path d="M1027.38,109.054 C964.772,133.797 845.098,181.093 779.606,206.976 " fill="none" id="_FMUdescriptionHandler-_UserElement" style="stroke: #000000; stroke-width: 0.55;"/><polygon fill="#000000" points="774.599,208.955,784.4391,209.3692,779.2494,207.1183,781.5004,201.9285,774.599,208.955" style="stroke: #000000; stroke-width: 0.55;"/><!--link _IHandler to _UserElement--><path d="M778.416,176.067 C770.533,184.752 760.722,195.56 752.328,204.809 " fill="none" id="_IHandler-_UserElement" style="stroke: #000000; stroke-width: 0.55;"/><polygon fill="#000000" points="748.826,208.666,757.837,204.6908,752.1867,204.9639,751.9136,199.3137,748.826,208.666" style="stroke: #000000; stroke-width: 0.55;"/><!--link _MMCreator to _CoSimulationConfig--><path d="M1211.11,109.067 C1217.54,117.597 1225.52,128.175 1232.4,137.312 " fill="none" id="_MMCreator-_CoSimulationConfig" style="stroke: #000000; stroke-width: 0.55;"/><polygon fill="#000000" points="1235.69,141.666,1233.4582,132.0734,1232.6767,137.676,1227.0741,136.8946,1235.69,141.666" style="stroke: #000000; stroke-width: 0.55;"/><!--link _MMCreator to _IHandler--><path d="M1158.82,106.994 C1156.19,107.725 1153.57,108.402 1151,109 C1036.82,135.6 898.565,149.476 832.23,155.03 " fill="none" id="_MMCreator-_IHandler" style="stroke: #000000; stroke-width: 0.55;"/><polygon fill="#000000" points="827.193,155.447,836.4926,158.6902,832.1759,155.0341,835.832,150.7175,827.193,155.447" style="stroke: #000000; stroke-width: 0.55;"/><!--link _MMCreator to _SystemSettings--><path d="M1166.25,109.036 C1103.54,139.176 961.548,204.683 836,243 C775.594,261.4357 704.533,274.9262 655.297,283.0311 " fill="none" id="_MMCreator-_SystemSettings" style="stroke: #000000; stroke-width: 0.55;"/><polygon fill="#000000" points="650.303,283.8471,659.83,286.3445,655.2377,283.0414,658.5408,278.4491,650.303,283.8471" style="stroke: #000000; stroke-width: 0.55;"/><!--link _MMCreator to _UserElement--><path d="M1158.97,106.496 C1156.28,107.357 1153.6,108.199 1151,109 C1020.11,149.292 864.243,191.006 785.297,211.6968 " fill="none" id="_MMCreator-_UserElement" style="stroke: #000000; stroke-width: 0.55;"/><polygon fill="#000000" points="780.21,213.029,789.9299,214.6176,785.0468,211.7619,787.9025,206.8788,780.21,213.029" style="stroke: #000000; stroke-width: 0.55;"/><!--link _ProjectDataHandler to _IHandler--><path d="M643.944,109.067 C677.859,120.201 722.411,134.827 753.946,145.179 " fill="none" id="_ProjectDataHandler-_IHandler" style="stroke: #000000; stroke-width: 0.55;"/><polygon fill="#000000" points="758.892,146.803,751.5876,140.1965,754.1412,145.2442,749.0935,147.7977,758.892,146.803" style="stroke: #000000; stroke-width: 0.55;"/><!--link _ProjectDataHandler to _SystemSettings--><path d="M595,109.285 C595,145.087 595,230.6307 595,270.6611 " fill="none" id="_ProjectDataHandler-_SystemSettings" style="stroke: #000000; stroke-width: 0.55;"/><polygon fill="#000000" points="595,275.7691,599,266.7691,595,270.7691,591,266.7691,595,275.7691" style="stroke: #000000; stroke-width: 0.55;"/><!--link _ProjectDataHandler to _UserElement--><path d="M612.044,109.186 C637.471,133.333 685.295,178.748 712.896,204.959 " fill="none" id="_ProjectDataHandler-_UserElement" style="stroke: #000000; stroke-width: 0.55;"/><polygon fill="#000000" points="716.816,208.682,713.0439,199.5841,713.1902,205.2391,707.5353,205.3854,716.816,208.682" style="stroke: #000000; stroke-width: 0.55;"/><!--link _ProjectsDataHandler to _IHandler--><path d="M757.618,109.067 C763.785,117.597 771.434,128.175 778.041,137.312 " fill="none" id="_ProjectsDataHandler-_IHandler" style="stroke: #000000; stroke-width: 0.55;"/><polygon fill="#000000" points="781.189,141.666,779.1577,132.0289,778.2596,137.614,772.6745,136.7159,781.189,141.666" style="stroke: #000000; stroke-width: 0.55;"/><!--link _ProjectsDataHandler to _UserElement--><path d="M744.529,109.186 C742.369,132.937 738.34,177.264 735.941,203.654 " fill="none" id="_ProjectsDataHandler-_UserElement" style="stroke: #000000; stroke-width: 0.55;"/><polygon fill="#000000" points="735.483,208.682,740.2816,200.0812,735.9358,203.7025,732.3145,199.3567,735.483,208.682" style="stroke: #000000; stroke-width: 0.55;"/><!--link _ProjectUploadHandler to _SystemSettings--><path d="M150.335,241.1374 C154.276,241.7954 158.184,242.4215 162,243 C294.426,263.0756 450.781,278.8192 534.631,286.6209 " fill="none" id="_ProjectUploadHandler-_SystemSettings" style="stroke: #000000; stroke-width: 0.55;"/><polygon fill="#000000" points="539.801,287.1004,531.2086,282.2869,534.8223,286.639,530.4703,290.2527,539.801,287.1004" style="stroke: #000000; stroke-width: 0.55;"/><!--link <b>server</b> to _authenticationHandler--><path d="M506.639,32.59 C468.431,42.142 396.33,60.167 342.285,73.679 " fill="none" id="&lt;b&gt;server&lt;/b&gt;-_authenticationHandler" style="stroke: #000000; stroke-width: 1.0;"/><polygon fill="#000000" points="337.113,74.972,346.8144,76.6697,341.9637,73.7593,344.8741,68.9086,337.113,74.972" style="stroke: #000000; stroke-width: 1.0;"/><!--link <b>server</b> to _authKeeper--><path d="M503.864,30.392 C473.329,36.215 425.261,48.96 392,75 C370.911,91.51 355.491,118.666 346.65,137.395 " fill="none" id="&lt;b&gt;server&lt;/b&gt;-_authKeeper" style="stroke: #000000; stroke-width: 1.0;"/><polygon fill="#000000" points="344.545,141.963,351.9446,135.4633,346.6377,137.422,344.679,132.1151,344.545,141.963" style="stroke: #000000; stroke-width: 1.0;"/><!--link <b>server</b> to _CoeHandler--><path d="M565.227,25 C721.708,25 878.189,25 1034.67,25 " fill="none" id="&lt;b&gt;server&lt;/b&gt;-_CoeHandler" style="stroke: #000000; stroke-width: 1.0;"/><polygon fill="#000000" points="1039.77,25,1030.77,21,1034.77,25,1030.77,29,1039.77,25" style="stroke: #000000; stroke-width: 1.0;"/><!--link <b>server</b> to _FileUpdater--><path d="M522.375,37.322 C513.665,46.603 501.125,59.965 490.736,71.035 " fill="none" id="&lt;b&gt;server&lt;/b&gt;-_FileUpdater" style="stroke: #000000; stroke-width: 1.0;"/><polygon fill="#000000" points="487.304,74.692,496.3796,70.8667,490.7256,71.0461,490.5462,65.3921,487.304,74.692" style="stroke: #000000; stroke-width: 1.0;"/><!--link <b>server</b> to _FMUdescriptionHandler--><path d="M563.186,29.337 C632.015,36.991 805.85,56.569 951,75 C962.834,76.503 975.333,78.149 987.584,79.796 " fill="none" id="&lt;b&gt;server&lt;/b&gt;-_FMUdescriptionHandler" style="stroke: #000000; stroke-width: 1.0;"/><polygon fill="#000000" points="992.816,80.501,984.4318,75.3333,987.8609,79.8323,983.3619,83.2614,992.816,80.501" style="stroke: #000000; stroke-width: 1.0;"/><!--link <b>server</b> to _MMCreator--><path d="M565.221,25.819 C657.497,25.886 930.296,30.161 1151,75 C1151.97,75.197 1152.94,75.407 1153.93,75.629 " fill="none" id="&lt;b&gt;server&lt;/b&gt;-_MMCreator" style="stroke: #000000; stroke-width: 1.0;"/><polygon fill="#000000" points="1158.86,76.834,1151.065,70.8143,1154.0026,75.6486,1149.1683,78.5862,1158.86,76.834" style="stroke: #000000; stroke-width: 1.0;"/><!--link <b>server</b> to _ProjectDataHandler--><path d="M543.8,37.322 C552.652,46.603 565.397,59.965 575.956,71.035 " fill="none" id="&lt;b&gt;server&lt;/b&gt;-_ProjectDataHandler" style="stroke: #000000; stroke-width: 1.0;"/><polygon fill="#000000" points="579.445,74.692,576.1277,65.4186,575.994,71.0739,570.3387,70.9402,579.445,74.692" style="stroke: #000000; stroke-width: 1.0;"/><!--link <b>server</b> to _ProjectsDataHandler--><path d="M557.434,33.456 C589.21,43.153 645.718,60.397 688.614,73.488 " fill="none" id="&lt;b&gt;server&lt;/b&gt;-_ProjectsDataHandler" style="stroke: #000000; stroke-width: 1.0;"/><polygon fill="#000000" points="693.511,74.982,686.0715,68.528,688.729,73.5218,683.7352,76.1793,693.511,74.982" style="stroke: #000000; stroke-width: 1.0;"/><!--link <b>server</b> to _ProjectUploadHandler--><path d="M500.966,26.617 C421.366,28.711 217.052,37.675 162,75 C116.508,105.844 92.9988,169.929 83.3859,203.473 " fill="none" id="&lt;b&gt;server&lt;/b&gt;-_ProjectUploadHandler" style="stroke: #000000; stroke-width: 1.0;"/><polygon fill="#000000" points="81.9612,208.585,88.2313,200.9899,83.304,203.7687,80.5252,198.8414,81.9612,208.585" style="stroke: #000000; stroke-width: 1.0;"/><!--link <b>server</b> to _SystemSettings--><path d="M500.886,25.534 C423.825,25.174 231.854,29.01 192,75 C182.104,86.42 186.35,94.985 192,109 C222.908,185.672 248.086,204.044 321,243 C388.232,278.92 476.64,289.178 534.602,291.7607 " fill="none" id="&lt;b&gt;server&lt;/b&gt;-_SystemSettings" style="stroke: #000000; stroke-width: 1.0;"/><polygon fill="#000000" points="539.765,291.974,530.9384,287.6046,534.7693,291.7669,530.607,295.5977,539.765,291.974" style="stroke: #000000; stroke-width: 1.0;"/><!--link <b>server</b> to _UserCoeHandler--><path d="M562.367,30.191 C614.89,37.859 728.289,55.191 823,75 C823.967,75.202 824.941,75.409 825.922,75.62 " fill="none" id="&lt;b&gt;server&lt;/b&gt;-_UserCoeHandler" style="stroke: #000000; stroke-width: 1.0;"/><polygon fill="#000000" points="830.865,76.704,822.9311,70.8685,825.9811,75.6327,821.217,78.6827,830.865,76.704" style="stroke: #000000; stroke-width: 1.0;"/><!--link <b>server</b> to _UserElement--><path d="M503.379,30.038 C476.996,35.374 439.884,47.557 422,75 C413.75,87.66 413.842,96.28 422,109 C478.136,196.526 609.492,218.3205 682.598,223.5445 " fill="none" id="&lt;b&gt;server&lt;/b&gt;-_UserElement" style="stroke: #000000; stroke-width: 1.0;"/><polygon fill="#000000" points="687.759,223.8927,679.0492,219.295,682.7704,223.5556,678.5098,227.2768,687.759,223.8927" style="stroke: #000000; stroke-width: 1.0;"/><!--link _UserElement to _SystemSettings--><path d="M699.64,243.0674 C679.759,252.3644 654.672,264.096 634.045,273.7414 " fill="none" id="_UserElement-_SystemSettings" style="stroke: #000000; stroke-width: 0.55;"/><polygon fill="#000000" points="629.446,275.8921,639.293,275.702,633.975,273.7736,635.9034,268.4556,629.446,275.8921" style="stroke: #000000; stroke-width: 0.55;"/><script type="text/plantuml"><![CDATA[
@startuml

scale max 1920 width
top to bottom direction

skinparam nodesep 16
skinparam ranksep 33
skinparam monochrome true
skinparam shadowing false
skinparam defaultFontName Tahoma
skinparam defaultFontSize 12
skinparam roundCorner 4
skinparam dpi 150
skinparam arrowColor black
skinparam arrowThickness 0.55
skinparam packageTitleAlignment left

skinparam usecase {
  borderThickness 0.5
}

skinparam rectangle {
  borderThickness 0.5
}

skinparam component {
  borderThickness 1
}


rectangle "authenticationHandler" as _authenticationHandler
rectangle "authKeeper" as _authKeeper
rectangle "CoeHandler" as _CoeHandler
rectangle "CoSimAlgorithms" as _CoSimAlgorithms
rectangle "CoSimulationConfig" as _CoSimulationConfig
rectangle "FileUpdater" as _FileUpdater
rectangle "FMUdescriptionHandler" as _FMUdescriptionHandler
rectangle "IHandler" as _IHandler
rectangle "<b>MM</b>" as _MM
rectangle "MMCreator" as _MMCreator
rectangle "<b>MMEditor</b>" as _MMEditor
rectangle "ProjectDataHandler" as _ProjectDataHandler
rectangle "ProjectsDataHandler" as _ProjectsDataHandler
rectangle "ProjectUploadHandler" as _ProjectUploadHandler
(<b>server</b>)
rectangle "SystemSettings" as _SystemSettings
rectangle "UserCoeHandler" as _UserCoeHandler
rectangle "UserElement" as _UserElement
rectangle "VariableStepConstraint" as _VariableStepConstraint


_authenticationHandler --> _authKeeper
_authenticationHandler --> _SystemSettings
_CoeHandler --> _IHandler
_CoeHandler --> _MMCreator
_CoeHandler --> _SystemSettings
_CoeHandler --> _UserCoeHandler
_CoeHandler --> _UserElement
_CoSimAlgorithms --> _VariableStepConstraint
_CoSimulationConfig --> _CoSimAlgorithms
_FileUpdater --> _IHandler
_FileUpdater --> _SystemSettings
_FileUpdater --> _UserElement
_FMUdescriptionHandler --> _IHandler
_FMUdescriptionHandler --> _SystemSettings
_FMUdescriptionHandler --> _UserElement
_IHandler --> _UserElement
_MMCreator --> _CoSimulationConfig
_MMCreator --> _IHandler
_MMCreator --> _SystemSettings
_MMCreator --> _UserElement
_ProjectDataHandler --> _IHandler
_ProjectDataHandler --> _SystemSettings
_ProjectDataHandler --> _UserElement
_ProjectsDataHandler --> _IHandler
_ProjectsDataHandler --> _UserElement
_ProjectUploadHandler --> _SystemSettings
(<b>server</b>) --[thickness=1]> _authenticationHandler
(<b>server</b>) --[thickness=1]> _authKeeper
(<b>server</b>) -[thickness=1]> _CoeHandler
(<b>server</b>) -[thickness=1]> _FileUpdater
(<b>server</b>) -[thickness=1]> _FMUdescriptionHandler
(<b>server</b>) -[thickness=1]> _MMCreator
(<b>server</b>) -[thickness=1]> _ProjectDataHandler
(<b>server</b>) -[thickness=1]> _ProjectsDataHandler
(<b>server</b>) -[thickness=1]> _ProjectUploadHandler
(<b>server</b>) -[thickness=1]> _SystemSettings
(<b>server</b>) -[thickness=1]> _UserCoeHandler
(<b>server</b>) -[thickness=1]> _UserElement
_UserElement --> _SystemSettings

@enduml


' View and edit on https://arkit.pro
]]></script></g></svg>